STARTFONT 2.1
COMMENT Exported by Fony v1.4.6
FONT Fixed
SIZE 16 100 100
FONTBOUNDINGBOX 10 15 0 -2
STARTPROPERTIES 6
COPYRIGHT "Public domain terminal emulator font.  Share and enjoy. original font -Misc-Fixed-Medium-R-SemiCondensed--12-110-75-75-C-60-ISO10646-1"
RESOLUTION_X 100
RESOLUTION_Y 100
FONT_ASCENT 14
FONT_DESCENT 2
DEFAULT_CHAR 0
ENDPROPERTIES
CHARS 256
STARTCHAR 000
ENCODING 0
SWIDTH 216 0
DWIDTH 3 0
BBX 0 0 0 0
BITMAP
ENDCHAR
STARTCHAR 001
ENCODING 1
SWIDTH 576 0
DWIDTH 8 0
BBX 6 10 1 1
BITMAP
40
78
E4
C4
84
84
84
9C
78
08
ENDCHAR
STARTCHAR 002
ENCODING 2
SWIDTH 576 0
DWIDTH 8 0
BBX 7 11 0 0
BITMAP
C0
FE
FE
C2
C2
C2
C2
C2
C2
FE
FE
ENDCHAR
STARTCHAR 003
ENCODING 3
SWIDTH 576 0
DWIDTH 8 0
BBX 7 8 0 1
BITMAP
10
18
1C
FE
FE
1C
18
10
ENDCHAR
STARTCHAR 004
ENCODING 4
SWIDTH 576 0
DWIDTH 8 0
BBX 7 11 0 0
BITMAP
10
38
7C
FE
10
10
10
10
10
F0
F0
ENDCHAR
STARTCHAR 005
ENCODING 5
SWIDTH 576 0
DWIDTH 8 0
BBX 6 11 1 -1
BITMAP
20
78
A4
A4
A4
BC
84
84
84
78
20
ENDCHAR
STARTCHAR 006
ENCODING 6
SWIDTH 720 0
DWIDTH 10 0
BBX 9 6 0 2
BITMAP
EE00
7700
1980
1980
7700
EE00
ENDCHAR
STARTCHAR 007
ENCODING 7
SWIDTH 576 0
DWIDTH 8 0
BBX 7 12 0 -1
BITMAP
FE
92
92
82
82
82
82
82
82
92
92
FE
ENDCHAR
STARTCHAR 008
ENCODING 8
SWIDTH 576 0
DWIDTH 8 0
BBX 5 13 1 -2
BITMAP
20
50
50
50
50
50
50
88
A8
A8
A8
88
70
ENDCHAR
STARTCHAR 009
ENCODING 9
SWIDTH 576 0
DWIDTH 8 0
BBX 3 3 1 5
BITMAP
40
A0
40
ENDCHAR
STARTCHAR 010
ENCODING 10
SWIDTH 216 0
DWIDTH 3 0
BBX 0 0 0 0
BITMAP
ENDCHAR
STARTCHAR 011
ENCODING 11
SWIDTH 216 0
DWIDTH 3 0
BBX 0 0 0 0
BITMAP
ENDCHAR
STARTCHAR 012
ENCODING 12
SWIDTH 216 0
DWIDTH 3 0
BBX 0 0 0 0
BITMAP
ENDCHAR
STARTCHAR 013
ENCODING 13
SWIDTH 216 0
DWIDTH 3 0
BBX 0 0 0 0
BITMAP
ENDCHAR
STARTCHAR 014
ENCODING 14
SWIDTH 216 0
DWIDTH 3 0
BBX 0 0 0 0
BITMAP
ENDCHAR
STARTCHAR 015
ENCODING 15
SWIDTH 216 0
DWIDTH 3 0
BBX 0 0 0 0
BITMAP
ENDCHAR
STARTCHAR 016
ENCODING 16
SWIDTH 216 0
DWIDTH 3 0
BBX 0 0 0 0
BITMAP
ENDCHAR
STARTCHAR 017
ENCODING 17
SWIDTH 216 0
DWIDTH 3 0
BBX 0 0 0 0
BITMAP
ENDCHAR
STARTCHAR 018
ENCODING 18
SWIDTH 216 0
DWIDTH 3 0
BBX 0 0 0 0
BITMAP
ENDCHAR
STARTCHAR 019
ENCODING 19
SWIDTH 216 0
DWIDTH 3 0
BBX 0 0 0 0
BITMAP
ENDCHAR
STARTCHAR 020
ENCODING 20
SWIDTH 216 0
DWIDTH 3 0
BBX 0 0 0 0
BITMAP
ENDCHAR
STARTCHAR 021
ENCODING 21
SWIDTH 216 0
DWIDTH 3 0
BBX 0 0 0 0
BITMAP
ENDCHAR
STARTCHAR 022
ENCODING 22
SWIDTH 216 0
DWIDTH 3 0
BBX 0 0 0 0
BITMAP
ENDCHAR
STARTCHAR 023
ENCODING 23
SWIDTH 216 0
DWIDTH 3 0
BBX 0 0 0 0
BITMAP
ENDCHAR
STARTCHAR 024
ENCODING 24
SWIDTH 216 0
DWIDTH 3 0
BBX 0 0 0 0
BITMAP
ENDCHAR
STARTCHAR 025
ENCODING 25
SWIDTH 216 0
DWIDTH 3 0
BBX 0 0 0 0
BITMAP
ENDCHAR
STARTCHAR 026
ENCODING 26
SWIDTH 216 0
DWIDTH 3 0
BBX 0 0 0 0
BITMAP
ENDCHAR
STARTCHAR 027
ENCODING 27
SWIDTH 216 0
DWIDTH 3 0
BBX 0 0 0 0
BITMAP
ENDCHAR
STARTCHAR 028
ENCODING 28
SWIDTH 216 0
DWIDTH 3 0
BBX 0 0 0 0
BITMAP
ENDCHAR
STARTCHAR 029
ENCODING 29
SWIDTH 216 0
DWIDTH 3 0
BBX 0 0 0 0
BITMAP
ENDCHAR
STARTCHAR 030
ENCODING 30
SWIDTH 216 0
DWIDTH 3 0
BBX 0 0 0 0
BITMAP
ENDCHAR
STARTCHAR 031
ENCODING 31
SWIDTH 216 0
DWIDTH 3 0
BBX 0 0 0 0
BITMAP
ENDCHAR
STARTCHAR 032
ENCODING 32
SWIDTH 576 0
DWIDTH 8 0
BBX 0 0 0 0
BITMAP
ENDCHAR
STARTCHAR 033
ENCODING 33
SWIDTH 576 0
DWIDTH 8 0
BBX 1 10 3 0
BITMAP
80
80
80
80
80
80
80
00
80
80
ENDCHAR
STARTCHAR 034
ENCODING 34
SWIDTH 576 0
DWIDTH 8 0
BBX 3 4 2 7
BITMAP
A0
A0
A0
A0
ENDCHAR
STARTCHAR 035
ENCODING 35
SWIDTH 576 0
DWIDTH 8 0
BBX 7 9 0 0
BITMAP
28
28
FE
28
28
28
FE
28
28
ENDCHAR
STARTCHAR 036
ENCODING 36
SWIDTH 576 0
DWIDTH 8 0
BBX 7 12 0 -1
BITMAP
10
3C
52
92
90
70
1C
12
92
54
3C
10
ENDCHAR
STARTCHAR 037
ENCODING 37
SWIDTH 576 0
DWIDTH 8 0
BBX 6 10 1 0
BITMAP
C4
C4
04
08
10
20
40
80
8C
8C
ENDCHAR
STARTCHAR 038
ENCODING 38
SWIDTH 576 0
DWIDTH 8 0
BBX 7 10 0 0
BITMAP
20
60
90
90
60
60
92
8C
52
32
ENDCHAR
STARTCHAR 039
ENCODING 39
SWIDTH 576 0
DWIDTH 8 0
BBX 1 4 3 7
BITMAP
80
80
80
80
ENDCHAR
STARTCHAR 040
ENCODING 40
SWIDTH 576 0
DWIDTH 8 0
BBX 4 12 2 -1
BITMAP
30
40
40
40
80
80
80
80
40
40
40
30
ENDCHAR
STARTCHAR 041
ENCODING 41
SWIDTH 576 0
DWIDTH 8 0
BBX 3 12 2 -1
BITMAP
80
40
40
40
20
20
20
20
40
40
40
80
ENDCHAR
STARTCHAR 042
ENCODING 42
SWIDTH 576 0
DWIDTH 8 0
BBX 7 10 0 0
BITMAP
10
10
D6
38
10
10
38
D6
10
10
ENDCHAR
STARTCHAR 043
ENCODING 43
SWIDTH 576 0
DWIDTH 8 0
BBX 7 7 0 2
BITMAP
10
10
10
FE
10
10
10
ENDCHAR
STARTCHAR 044
ENCODING 44
SWIDTH 576 0
DWIDTH 8 0
BBX 2 4 2 -1
BITMAP
C0
40
40
80
ENDCHAR
STARTCHAR 045
ENCODING 45
SWIDTH 576 0
DWIDTH 8 0
BBX 7 2 0 4
BITMAP
FE
FE
ENDCHAR
STARTCHAR 046
ENCODING 46
SWIDTH 576 0
DWIDTH 8 0
BBX 2 2 2 0
BITMAP
C0
C0
ENDCHAR
STARTCHAR 047
ENCODING 47
SWIDTH 576 0
DWIDTH 8 0
BBX 6 10 1 0
BITMAP
04
04
08
10
10
20
40
40
80
80
ENDCHAR
STARTCHAR 048
ENCODING 48
SWIDTH 576 0
DWIDTH 8 0
BBX 6 10 1 0
BITMAP
30
48
84
8C
94
A4
C4
84
48
30
ENDCHAR
STARTCHAR 049
ENCODING 49
SWIDTH 576 0
DWIDTH 8 0
BBX 5 10 1 0
BITMAP
20
60
E0
20
20
20
20
20
20
F8
ENDCHAR
STARTCHAR 050
ENCODING 50
SWIDTH 576 0
DWIDTH 8 0
BBX 7 10 0 0
BITMAP
38
44
82
02
04
08
10
20
40
FE
ENDCHAR
STARTCHAR 051
ENCODING 51
SWIDTH 576 0
DWIDTH 8 0
BBX 7 10 0 0
BITMAP
FE
02
02
04
08
1C
02
82
44
38
ENDCHAR
STARTCHAR 052
ENCODING 52
SWIDTH 576 0
DWIDTH 8 0
BBX 7 10 0 0
BITMAP
04
0C
14
24
44
84
FE
04
04
04
ENDCHAR
STARTCHAR 053
ENCODING 53
SWIDTH 576 0
DWIDTH 8 0
BBX 7 10 0 0
BITMAP
FE
80
80
FC
02
02
02
82
44
38
ENDCHAR
STARTCHAR 054
ENCODING 54
SWIDTH 576 0
DWIDTH 8 0
BBX 7 10 0 0
BITMAP
1C
20
40
80
F8
84
82
82
44
38
ENDCHAR
STARTCHAR 055
ENCODING 55
SWIDTH 576 0
DWIDTH 8 0
BBX 7 10 0 0
BITMAP
FE
02
02
04
0C
08
10
10
10
10
ENDCHAR
STARTCHAR 056
ENCODING 56
SWIDTH 576 0
DWIDTH 8 0
BBX 7 10 0 0
BITMAP
38
44
82
82
44
38
44
82
44
38
ENDCHAR
STARTCHAR 057
ENCODING 57
SWIDTH 576 0
DWIDTH 8 0
BBX 7 10 0 0
BITMAP
38
44
82
82
42
3E
02
04
08
30
ENDCHAR
STARTCHAR 058
ENCODING 58
SWIDTH 576 0
DWIDTH 8 0
BBX 2 5 2 1
BITMAP
C0
C0
00
C0
C0
ENDCHAR
STARTCHAR 059
ENCODING 59
SWIDTH 576 0
DWIDTH 8 0
BBX 2 7 2 -1
BITMAP
C0
C0
00
C0
40
40
80
ENDCHAR
STARTCHAR 060
ENCODING 60
SWIDTH 576 0
DWIDTH 8 0
BBX 4 7 2 1
BITMAP
10
20
40
80
40
20
10
ENDCHAR
STARTCHAR 061
ENCODING 61
SWIDTH 576 0
DWIDTH 8 0
BBX 7 4 0 3
BITMAP
FE
00
00
FE
ENDCHAR
STARTCHAR 062
ENCODING 62
SWIDTH 576 0
DWIDTH 8 0
BBX 4 7 2 1
BITMAP
80
40
20
10
20
40
80
ENDCHAR
STARTCHAR 063
ENCODING 63
SWIDTH 576 0
DWIDTH 8 0
BBX 7 10 0 0
BITMAP
38
44
82
04
08
10
10
00
10
10
ENDCHAR
STARTCHAR 064
ENCODING 64
SWIDTH 576 0
DWIDTH 8 0
BBX 7 10 0 0
BITMAP
38
44
82
9E
92
92
9E
80
40
3C
ENDCHAR
STARTCHAR 065
ENCODING 65
SWIDTH 576 0
DWIDTH 8 0
BBX 7 10 0 0
BITMAP
7C
82
82
82
82
FE
82
82
82
82
ENDCHAR
STARTCHAR 066
ENCODING 66
SWIDTH 576 0
DWIDTH 8 0
BBX 7 10 0 0
BITMAP
F8
44
42
42
7C
42
42
42
44
FC
ENDCHAR
STARTCHAR 067
ENCODING 67
SWIDTH 576 0
DWIDTH 8 0
BBX 7 10 0 0
BITMAP
18
24
42
80
80
80
80
42
24
18
ENDCHAR
STARTCHAR 068
ENCODING 68
SWIDTH 576 0
DWIDTH 8 0
BBX 7 10 0 0
BITMAP
F8
44
42
42
42
42
42
42
44
F8
ENDCHAR
STARTCHAR 069
ENCODING 69
SWIDTH 576 0
DWIDTH 8 0
BBX 7 10 0 0
BITMAP
FE
80
80
80
FC
80
80
80
80
FE
ENDCHAR
STARTCHAR 070
ENCODING 70
SWIDTH 576 0
DWIDTH 8 0
BBX 7 10 0 0
BITMAP
FE
80
80
80
FC
80
80
80
80
80
ENDCHAR
STARTCHAR 071
ENCODING 71
SWIDTH 576 0
DWIDTH 8 0
BBX 7 10 0 0
BITMAP
38
44
82
80
80
80
8E
42
24
18
ENDCHAR
STARTCHAR 072
ENCODING 72
SWIDTH 576 0
DWIDTH 8 0
BBX 7 10 0 0
BITMAP
82
82
82
82
FE
82
82
82
82
82
ENDCHAR
STARTCHAR 073
ENCODING 73
SWIDTH 576 0
DWIDTH 8 0
BBX 5 10 1 0
BITMAP
F8
20
20
20
20
20
20
20
20
F8
ENDCHAR
STARTCHAR 074
ENCODING 74
SWIDTH 576 0
DWIDTH 8 0
BBX 7 9 0 0
BITMAP
3E
08
08
08
08
08
88
48
30
ENDCHAR
STARTCHAR 075
ENCODING 75
SWIDTH 576 0
DWIDTH 8 0
BBX 7 10 0 0
BITMAP
82
84
88
90
E0
E0
90
88
84
82
ENDCHAR
STARTCHAR 076
ENCODING 76
SWIDTH 576 0
DWIDTH 8 0
BBX 7 10 0 0
BITMAP
80
80
80
80
80
80
80
80
80
FE
ENDCHAR
STARTCHAR 077
ENCODING 77
SWIDTH 576 0
DWIDTH 8 0
BBX 7 10 0 0
BITMAP
82
C6
AA
92
82
82
82
82
82
82
ENDCHAR
STARTCHAR 078
ENCODING 78
SWIDTH 576 0
DWIDTH 8 0
BBX 7 10 0 0
BITMAP
82
82
C2
A2
92
8A
86
82
82
82
ENDCHAR
STARTCHAR 079
ENCODING 79
SWIDTH 576 0
DWIDTH 8 0
BBX 7 10 0 0
BITMAP
38
44
82
82
82
82
82
82
44
38
ENDCHAR
STARTCHAR 080
ENCODING 80
SWIDTH 576 0
DWIDTH 8 0
BBX 7 10 0 0
BITMAP
F8
84
82
82
84
F8
80
80
80
80
ENDCHAR
STARTCHAR 081
ENCODING 81
SWIDTH 576 0
DWIDTH 8 0
BBX 7 10 0 0
BITMAP
38
44
82
82
82
82
82
8C
46
3A
ENDCHAR
STARTCHAR 082
ENCODING 82
SWIDTH 576 0
DWIDTH 8 0
BBX 7 10 0 0
BITMAP
F8
84
82
82
84
F8
90
88
84
82
ENDCHAR
STARTCHAR 083
ENCODING 83
SWIDTH 576 0
DWIDTH 8 0
BBX 7 10 0 0
BITMAP
18
24
42
80
40
3C
02
82
44
38
ENDCHAR
STARTCHAR 084
ENCODING 84
SWIDTH 576 0
DWIDTH 8 0
BBX 7 10 0 0
BITMAP
FE
10
10
10
10
10
10
10
10
10
ENDCHAR
STARTCHAR 085
ENCODING 85
SWIDTH 576 0
DWIDTH 8 0
BBX 7 10 0 0
BITMAP
82
82
82
82
82
82
82
82
44
38
ENDCHAR
STARTCHAR 086
ENCODING 86
SWIDTH 576 0
DWIDTH 8 0
BBX 7 10 0 0
BITMAP
82
82
82
82
82
82
44
44
28
10
ENDCHAR
STARTCHAR 087
ENCODING 87
SWIDTH 576 0
DWIDTH 8 0
BBX 7 10 0 0
BITMAP
82
82
82
82
82
82
92
92
54
28
ENDCHAR
STARTCHAR 088
ENCODING 88
SWIDTH 576 0
DWIDTH 8 0
BBX 7 10 0 0
BITMAP
82
82
44
28
10
10
28
44
82
82
ENDCHAR
STARTCHAR 089
ENCODING 89
SWIDTH 576 0
DWIDTH 8 0
BBX 7 10 0 0
BITMAP
82
82
44
28
10
10
10
10
10
10
ENDCHAR
STARTCHAR 090
ENCODING 90
SWIDTH 576 0
DWIDTH 8 0
BBX 7 10 0 0
BITMAP
FE
02
02
04
08
10
20
40
80
FE
ENDCHAR
STARTCHAR 091
ENCODING 91
SWIDTH 576 0
DWIDTH 8 0
BBX 4 12 2 -1
BITMAP
F0
80
80
80
80
80
80
80
80
80
80
F0
ENDCHAR
STARTCHAR 092
ENCODING 92
SWIDTH 576 0
DWIDTH 8 0
BBX 7 10 0 0
BITMAP
80
80
40
20
10
10
08
08
04
02
ENDCHAR
STARTCHAR 093
ENCODING 93
SWIDTH 576 0
DWIDTH 8 0
BBX 4 12 2 -1
BITMAP
F0
10
10
10
10
10
10
10
10
10
10
F0
ENDCHAR
STARTCHAR 094
ENCODING 94
SWIDTH 576 0
DWIDTH 8 0
BBX 7 4 0 7
BITMAP
10
28
44
82
ENDCHAR
STARTCHAR 095
ENCODING 95
SWIDTH 576 0
DWIDTH 8 0
BBX 7 1 0 -2
BITMAP
FE
ENDCHAR
STARTCHAR 096
ENCODING 96
SWIDTH 576 0
DWIDTH 8 0
BBX 4 4 2 7
BITMAP
80
40
20
10
ENDCHAR
STARTCHAR 097
ENCODING 97
SWIDTH 576 0
DWIDTH 8 0
BBX 7 7 0 0
BITMAP
3C
02
02
3E
C2
46
3E
ENDCHAR
STARTCHAR 098
ENCODING 98
SWIDTH 576 0
DWIDTH 8 0
BBX 7 10 0 0
BITMAP
80
80
80
FC
82
82
82
82
84
F8
ENDCHAR
STARTCHAR 099
ENCODING 99
SWIDTH 576 0
DWIDTH 8 0
BBX 7 7 0 0
BITMAP
7C
80
80
80
82
44
38
ENDCHAR
STARTCHAR 100
ENCODING 100
SWIDTH 576 0
DWIDTH 8 0
BBX 7 10 0 0
BITMAP
02
02
02
3E
42
82
82
82
42
3E
ENDCHAR
STARTCHAR 101
ENCODING 101
SWIDTH 576 0
DWIDTH 8 0
BBX 7 7 0 0
BITMAP
3C
42
82
FC
80
40
3C
ENDCHAR
STARTCHAR 102
ENCODING 102
SWIDTH 576 0
DWIDTH 8 0
BBX 7 10 0 0
BITMAP
08
14
22
20
20
F8
20
20
20
20
ENDCHAR
STARTCHAR 103
ENCODING 103
SWIDTH 576 0
DWIDTH 8 0
BBX 7 9 0 -2
BITMAP
3C
42
82
82
82
42
3E
02
3C
ENDCHAR
STARTCHAR 104
ENCODING 104
SWIDTH 576 0
DWIDTH 8 0
BBX 7 10 0 0
BITMAP
80
80
80
FC
82
82
82
82
82
82
ENDCHAR
STARTCHAR 105
ENCODING 105
SWIDTH 576 0
DWIDTH 8 0
BBX 4 9 2 0
BITMAP
40
00
C0
40
40
40
40
40
F0
ENDCHAR
STARTCHAR 106
ENCODING 106
SWIDTH 576 0
DWIDTH 8 0
BBX 5 11 2 -2
BITMAP
08
00
38
08
08
08
08
08
08
88
70
ENDCHAR
STARTCHAR 107
ENCODING 107
SWIDTH 576 0
DWIDTH 8 0
BBX 7 10 0 0
BITMAP
80
80
80
82
84
88
F0
88
84
82
ENDCHAR
STARTCHAR 108
ENCODING 108
SWIDTH 576 0
DWIDTH 8 0
BBX 4 9 2 0
BITMAP
C0
40
40
40
40
40
40
40
F0
ENDCHAR
STARTCHAR 109
ENCODING 109
SWIDTH 576 0
DWIDTH 8 0
BBX 7 7 0 0
BITMAP
EC
92
92
92
92
92
92
ENDCHAR
STARTCHAR 110
ENCODING 110
SWIDTH 576 0
DWIDTH 8 0
BBX 7 7 0 0
BITMAP
9C
A2
C2
82
82
82
82
ENDCHAR
STARTCHAR 111
ENCODING 111
SWIDTH 576 0
DWIDTH 8 0
BBX 7 7 0 0
BITMAP
38
44
82
82
82
44
38
ENDCHAR
STARTCHAR 112
ENCODING 112
SWIDTH 576 0
DWIDTH 8 0
BBX 7 9 0 -2
BITMAP
FC
82
82
82
82
82
FC
80
80
ENDCHAR
STARTCHAR 113
ENCODING 113
SWIDTH 576 0
DWIDTH 8 0
BBX 7 9 0 -2
BITMAP
7E
82
82
82
82
82
7E
02
02
ENDCHAR
STARTCHAR 114
ENCODING 114
SWIDTH 576 0
DWIDTH 8 0
BBX 7 7 0 0
BITMAP
9C
A2
C2
80
80
80
80
ENDCHAR
STARTCHAR 115
ENCODING 115
SWIDTH 576 0
DWIDTH 8 0
BBX 7 7 0 0
BITMAP
3E
40
80
7C
02
04
F8
ENDCHAR
STARTCHAR 116
ENCODING 116
SWIDTH 576 0
DWIDTH 8 0
BBX 7 10 0 0
BITMAP
10
10
10
FE
10
10
10
10
08
06
ENDCHAR
STARTCHAR 117
ENCODING 117
SWIDTH 576 0
DWIDTH 8 0
BBX 7 7 0 0
BITMAP
82
82
82
82
86
8A
72
ENDCHAR
STARTCHAR 118
ENCODING 118
SWIDTH 576 0
DWIDTH 8 0
BBX 7 7 0 0
BITMAP
82
82
82
82
44
28
10
ENDCHAR
STARTCHAR 119
ENCODING 119
SWIDTH 576 0
DWIDTH 8 0
BBX 7 7 0 0
BITMAP
82
82
82
82
92
54
28
ENDCHAR
STARTCHAR 120
ENCODING 120
SWIDTH 576 0
DWIDTH 8 0
BBX 7 7 0 0
BITMAP
82
44
28
10
28
44
82
ENDCHAR
STARTCHAR 121
ENCODING 121
SWIDTH 576 0
DWIDTH 8 0
BBX 7 9 0 -2
BITMAP
82
82
82
44
28
10
10
20
C0
ENDCHAR
STARTCHAR 122
ENCODING 122
SWIDTH 576 0
DWIDTH 8 0
BBX 7 7 0 0
BITMAP
FE
04
08
10
20
40
FE
ENDCHAR
STARTCHAR 123
ENCODING 123
SWIDTH 576 0
DWIDTH 8 0
BBX 4 12 2 -1
BITMAP
30
40
40
40
40
80
80
40
40
40
40
30
ENDCHAR
STARTCHAR 124
ENCODING 124
SWIDTH 576 0
DWIDTH 8 0
BBX 1 12 3 -1
BITMAP
80
80
80
80
80
80
80
80
80
80
80
80
ENDCHAR
STARTCHAR 125
ENCODING 125
SWIDTH 576 0
DWIDTH 8 0
BBX 3 12 2 -1
BITMAP
80
40
40
40
40
20
20
40
40
40
40
80
ENDCHAR
STARTCHAR 126
ENCODING 126
SWIDTH 576 0
DWIDTH 8 0
BBX 7 4 0 3
BITMAP
22
52
92
8C
ENDCHAR
STARTCHAR 127
ENCODING 127
SWIDTH 216 0
DWIDTH 3 0
BBX 0 0 0 0
BITMAP
ENDCHAR
STARTCHAR 128
ENCODING 128
SWIDTH 216 0
DWIDTH 3 0
BBX 0 0 0 0
BITMAP
ENDCHAR
STARTCHAR 129
ENCODING 129
SWIDTH 216 0
DWIDTH 3 0
BBX 0 0 0 0
BITMAP
ENDCHAR
STARTCHAR 130
ENCODING 130
SWIDTH 216 0
DWIDTH 3 0
BBX 0 0 0 0
BITMAP
ENDCHAR
STARTCHAR 131
ENCODING 131
SWIDTH 216 0
DWIDTH 3 0
BBX 0 0 0 0
BITMAP
ENDCHAR
STARTCHAR 132
ENCODING 132
SWIDTH 216 0
DWIDTH 3 0
BBX 0 0 0 0
BITMAP
ENDCHAR
STARTCHAR 133
ENCODING 133
SWIDTH 216 0
DWIDTH 3 0
BBX 0 0 0 0
BITMAP
ENDCHAR
STARTCHAR 134
ENCODING 134
SWIDTH 216 0
DWIDTH 3 0
BBX 0 0 0 0
BITMAP
ENDCHAR
STARTCHAR 135
ENCODING 135
SWIDTH 216 0
DWIDTH 3 0
BBX 0 0 0 0
BITMAP
ENDCHAR
STARTCHAR 136
ENCODING 136
SWIDTH 216 0
DWIDTH 3 0
BBX 0 0 0 0
BITMAP
ENDCHAR
STARTCHAR 137
ENCODING 137
SWIDTH 216 0
DWIDTH 3 0
BBX 0 0 0 0
BITMAP
ENDCHAR
STARTCHAR 138
ENCODING 138
SWIDTH 216 0
DWIDTH 3 0
BBX 0 0 0 0
BITMAP
ENDCHAR
STARTCHAR 139
ENCODING 139
SWIDTH 216 0
DWIDTH 3 0
BBX 0 0 0 0
BITMAP
ENDCHAR
STARTCHAR 140
ENCODING 140
SWIDTH 216 0
DWIDTH 3 0
BBX 0 0 0 0
BITMAP
ENDCHAR
STARTCHAR 141
ENCODING 141
SWIDTH 216 0
DWIDTH 3 0
BBX 0 0 0 0
BITMAP
ENDCHAR
STARTCHAR 142
ENCODING 142
SWIDTH 216 0
DWIDTH 3 0
BBX 0 0 0 0
BITMAP
ENDCHAR
STARTCHAR 143
ENCODING 143
SWIDTH 216 0
DWIDTH 3 0
BBX 0 0 0 0
BITMAP
ENDCHAR
STARTCHAR 144
ENCODING 144
SWIDTH 216 0
DWIDTH 3 0
BBX 0 0 0 0
BITMAP
ENDCHAR
STARTCHAR 145
ENCODING 145
SWIDTH 216 0
DWIDTH 3 0
BBX 0 0 0 0
BITMAP
ENDCHAR
STARTCHAR 146
ENCODING 146
SWIDTH 216 0
DWIDTH 3 0
BBX 0 0 0 0
BITMAP
ENDCHAR
STARTCHAR 147
ENCODING 147
SWIDTH 216 0
DWIDTH 3 0
BBX 0 0 0 0
BITMAP
ENDCHAR
STARTCHAR 148
ENCODING 148
SWIDTH 216 0
DWIDTH 3 0
BBX 0 0 0 0
BITMAP
ENDCHAR
STARTCHAR 149
ENCODING 149
SWIDTH 216 0
DWIDTH 3 0
BBX 0 0 0 0
BITMAP
ENDCHAR
STARTCHAR 150
ENCODING 150
SWIDTH 216 0
DWIDTH 3 0
BBX 0 0 0 0
BITMAP
ENDCHAR
STARTCHAR 151
ENCODING 151
SWIDTH 216 0
DWIDTH 3 0
BBX 0 0 0 0
BITMAP
ENDCHAR
STARTCHAR 152
ENCODING 152
SWIDTH 216 0
DWIDTH 3 0
BBX 0 0 0 0
BITMAP
ENDCHAR
STARTCHAR 153
ENCODING 153
SWIDTH 216 0
DWIDTH 3 0
BBX 0 0 0 0
BITMAP
ENDCHAR
STARTCHAR 154
ENCODING 154
SWIDTH 216 0
DWIDTH 3 0
BBX 0 0 0 0
BITMAP
ENDCHAR
STARTCHAR 155
ENCODING 155
SWIDTH 216 0
DWIDTH 3 0
BBX 0 0 0 0
BITMAP
ENDCHAR
STARTCHAR 156
ENCODING 156
SWIDTH 216 0
DWIDTH 3 0
BBX 0 0 0 0
BITMAP
ENDCHAR
STARTCHAR 157
ENCODING 157
SWIDTH 216 0
DWIDTH 3 0
BBX 0 0 0 0
BITMAP
ENDCHAR
STARTCHAR 158
ENCODING 158
SWIDTH 216 0
DWIDTH 3 0
BBX 0 0 0 0
BITMAP
ENDCHAR
STARTCHAR 159
ENCODING 159
SWIDTH 216 0
DWIDTH 3 0
BBX 0 0 0 0
BITMAP
ENDCHAR
STARTCHAR 160
ENCODING 160
SWIDTH 576 0
DWIDTH 8 0
BBX 0 0 0 0
BITMAP
ENDCHAR
STARTCHAR 161
ENCODING 161
SWIDTH 576 0
DWIDTH 8 0
BBX 1 10 3 0
BITMAP
80
80
00
80
80
80
80
80
80
80
ENDCHAR
STARTCHAR 162
ENCODING 162
SWIDTH 576 0
DWIDTH 8 0
BBX 7 9 0 -1
BITMAP
10
3C
D2
D2
D0
D2
3C
3C
10
ENDCHAR
STARTCHAR 163
ENCODING 163
SWIDTH 576 0
DWIDTH 8 0
BBX 7 10 0 0
BITMAP
1C
1C
22
20
F0
F0
20
22
DC
DC
ENDCHAR
STARTCHAR 164
ENCODING 164
SWIDTH 576 0
DWIDTH 8 0
BBX 7 7 0 0
BITMAP
D2
2C
2C
C2
2C
D2
D2
ENDCHAR
STARTCHAR 165
ENCODING 165
SWIDTH 576 0
DWIDTH 8 0
BBX 7 10 0 0
BITMAP
C2
C2
2C
FE
10
10
FE
10
10
10
ENDCHAR
STARTCHAR 166
ENCODING 166
SWIDTH 576 0
DWIDTH 8 0
BBX 1 10 3 0
BITMAP
80
80
80
80
00
00
80
80
80
80
ENDCHAR
STARTCHAR 167
ENCODING 167
SWIDTH 576 0
DWIDTH 8 0
BBX 5 11 2 0
BITMAP
78
80
80
70
88
88
88
70
08
F0
F0
ENDCHAR
STARTCHAR 168
ENCODING 168
SWIDTH 576 0
DWIDTH 8 0
BBX 4 1 2 10
BITMAP
B0
ENDCHAR
STARTCHAR 169
ENCODING 169
SWIDTH 576 0
DWIDTH 8 0
BBX 8 10 0 0
BITMAP
3E
3E
C1
DD
D1
D1
DD
C1
3E
3E
ENDCHAR
STARTCHAR 170
ENCODING 170
SWIDTH 576 0
DWIDTH 8 0
BBX 4 6 2 6
BITMAP
70
B0
70
70
00
F0
ENDCHAR
STARTCHAR 171
ENCODING 171
SWIDTH 576 0
DWIDTH 8 0
BBX 7 7 0 0
BITMAP
12
2C
2C
D0
2C
12
12
ENDCHAR
STARTCHAR 172
ENCODING 172
SWIDTH 576 0
DWIDTH 8 0
BBX 7 4 0 2
BITMAP
FE
FE
02
02
ENDCHAR
STARTCHAR 173
ENCODING 173
SWIDTH 576 0
DWIDTH 8 0
BBX 4 2 2 4
BITMAP
F0
F0
ENDCHAR
STARTCHAR 174
ENCODING 174
SWIDTH 576 0
DWIDTH 8 0
BBX 8 10 0 0
BITMAP
3E
3E
C1
DD
D1
D1
D1
C1
3E
3E
ENDCHAR
STARTCHAR 175
ENCODING 175
SWIDTH 576 0
DWIDTH 8 0
BBX 7 1 0 10
BITMAP
FE
ENDCHAR
STARTCHAR 176
ENCODING 176
SWIDTH 576 0
DWIDTH 8 0
BBX 5 5 2 7
BITMAP
70
88
88
88
70
ENDCHAR
STARTCHAR 177
ENCODING 177
SWIDTH 576 0
DWIDTH 8 0
BBX 7 10 0 0
BITMAP
10
10
10
FE
10
10
10
00
FE
FE
ENDCHAR
STARTCHAR 178
ENCODING 178
SWIDTH 576 0
DWIDTH 8 0
BBX 4 6 2 6
BITMAP
40
B0
30
30
40
F0
ENDCHAR
STARTCHAR 179
ENCODING 179
SWIDTH 576 0
DWIDTH 8 0
BBX 4 6 2 6
BITMAP
C0
30
40
40
30
C0
ENDCHAR
STARTCHAR 180
ENCODING 180
SWIDTH 576 0
DWIDTH 8 0
BBX 4 4 2 7
BITMAP
30
40
40
80
ENDCHAR
STARTCHAR 181
ENCODING 181
SWIDTH 576 0
DWIDTH 8 0
BBX 7 9 0 -2
BITMAP
C2
C2
C2
C2
CE
F2
F2
C0
C0
ENDCHAR
STARTCHAR 182
ENCODING 182
SWIDTH 576 0
DWIDTH 8 0
BBX 7 11 0 0
BITMAP
3E
F2
F2
F2
F2
32
32
12
12
12
12
ENDCHAR
STARTCHAR 183
ENCODING 183
SWIDTH 576 0
DWIDTH 8 0
BBX 3 3 3 4
BITMAP
E0
E0
E0
ENDCHAR
STARTCHAR 184
ENCODING 184
SWIDTH 576 0
DWIDTH 8 0
BBX 4 2 2 -2
BITMAP
30
C0
ENDCHAR
STARTCHAR 185
ENCODING 185
SWIDTH 576 0
DWIDTH 8 0
BBX 4 6 2 6
BITMAP
40
C0
40
40
40
F0
ENDCHAR
STARTCHAR 186
ENCODING 186
SWIDTH 576 0
DWIDTH 8 0
BBX 4 7 2 7
BITMAP
40
40
B0
40
00
00
F0
ENDCHAR
STARTCHAR 187
ENCODING 187
SWIDTH 576 0
DWIDTH 8 0
BBX 7 7 0 0
BITMAP
D0
2C
2C
12
2C
D0
D0
ENDCHAR
STARTCHAR 188
ENCODING 188
SWIDTH 576 0
DWIDTH 8 0
BBX 7 14 0 0
BITMAP
20
20
E0
22
2C
2C
30
2C
DC
DC
2C
3E
0C
0C
ENDCHAR
STARTCHAR 189
ENCODING 189
SWIDTH 576 0
DWIDTH 8 0
BBX 7 14 0 0
BITMAP
20
20
E0
22
2C
2C
30
2C
D2
D2
02
0C
1E
1E
ENDCHAR
STARTCHAR 190
ENCODING 190
SWIDTH 576 0
DWIDTH 8 0
BBX 7 14 0 0
BITMAP
E0
E0
10
22
1C
1C
F0
2C
DC
DC
2C
3E
0C
0C
ENDCHAR
STARTCHAR 191
ENCODING 191
SWIDTH 576 0
DWIDTH 8 0
BBX 7 10 0 0
BITMAP
10
10
00
10
10
10
20
C2
3C
3C
ENDCHAR
STARTCHAR 192
ENCODING 192
SWIDTH 576 0
DWIDTH 8 0
BBX 7 14 0 0
BITMAP
20
20
10
00
3C
3C
C2
C2
FE
FE
C2
C2
C2
C2
ENDCHAR
STARTCHAR 193
ENCODING 193
SWIDTH 576 0
DWIDTH 8 0
BBX 7 14 0 0
BITMAP
0C
0C
10
00
3C
3C
C2
C2
FE
FE
C2
C2
C2
C2
ENDCHAR
STARTCHAR 194
ENCODING 194
SWIDTH 576 0
DWIDTH 8 0
BBX 7 14 0 0
BITMAP
10
10
2C
00
3C
3C
C2
C2
FE
FE
C2
C2
C2
C2
ENDCHAR
STARTCHAR 195
ENCODING 195
SWIDTH 576 0
DWIDTH 8 0
BBX 7 14 0 0
BITMAP
32
32
DC
00
3C
3C
C2
C2
FE
FE
C2
C2
C2
C2
ENDCHAR
STARTCHAR 196
ENCODING 196
SWIDTH 576 0
DWIDTH 8 0
BBX 7 12 0 0
BITMAP
2C
00
3C
3C
C2
C2
FE
FE
C2
C2
C2
C2
ENDCHAR
STARTCHAR 197
ENCODING 197
SWIDTH 576 0
DWIDTH 8 0
BBX 7 14 0 0
BITMAP
10
10
2C
10
3C
3C
C2
C2
FE
FE
C2
C2
C2
C2
ENDCHAR
STARTCHAR 198
ENCODING 198
SWIDTH 576 0
DWIDTH 8 0
BBX 7 10 0 0
BITMAP
3E
3E
D0
D0
FC
FC
D0
D0
DE
DE
ENDCHAR
STARTCHAR 199
ENCODING 199
SWIDTH 576 0
DWIDTH 8 0
BBX 7 12 0 -2
BITMAP
3C
3C
C2
C0
C0
C0
C0
C2
3C
3C
0C
30
ENDCHAR
STARTCHAR 200
ENCODING 200
SWIDTH 576 0
DWIDTH 8 0
BBX 7 14 0 0
BITMAP
20
20
10
00
FE
FE
C0
C0
FC
FC
C0
C0
FE
FE
ENDCHAR
STARTCHAR 201
ENCODING 201
SWIDTH 576 0
DWIDTH 8 0
BBX 7 14 0 0
BITMAP
0C
0C
10
00
FE
FE
C0
C0
FC
FC
C0
C0
FE
FE
ENDCHAR
STARTCHAR 202
ENCODING 202
SWIDTH 576 0
DWIDTH 8 0
BBX 7 14 0 0
BITMAP
10
10
2C
00
FE
FE
C0
C0
FC
FC
C0
C0
FE
FE
ENDCHAR
STARTCHAR 203
ENCODING 203
SWIDTH 576 0
DWIDTH 8 0
BBX 7 12 0 0
BITMAP
2C
00
FE
FE
C0
C0
FC
FC
C0
C0
FE
FE
ENDCHAR
STARTCHAR 204
ENCODING 204
SWIDTH 576 0
DWIDTH 8 0
BBX 4 14 2 0
BITMAP
80
80
40
00
F0
F0
40
40
40
40
40
40
F0
F0
ENDCHAR
STARTCHAR 205
ENCODING 205
SWIDTH 576 0
DWIDTH 8 0
BBX 4 14 2 0
BITMAP
30
30
40
00
F0
F0
40
40
40
40
40
40
F0
F0
ENDCHAR
STARTCHAR 206
ENCODING 206
SWIDTH 576 0
DWIDTH 8 0
BBX 4 14 2 0
BITMAP
40
40
B0
00
F0
F0
40
40
40
40
40
40
F0
F0
ENDCHAR
STARTCHAR 207
ENCODING 207
SWIDTH 576 0
DWIDTH 8 0
BBX 4 12 2 0
BITMAP
B0
00
F0
F0
40
40
40
40
40
40
F0
F0
ENDCHAR
STARTCHAR 208
ENCODING 208
SWIDTH 576 0
DWIDTH 8 0
BBX 7 10 0 0
BITMAP
3C
3C
22
22
F2
F2
22
22
3C
3C
ENDCHAR
STARTCHAR 209
ENCODING 209
SWIDTH 576 0
DWIDTH 8 0
BBX 7 14 0 0
BITMAP
32
32
DC
00
C2
C2
C2
E2
D2
D2
CE
C2
C2
C2
ENDCHAR
STARTCHAR 210
ENCODING 210
SWIDTH 576 0
DWIDTH 8 0
BBX 7 14 0 0
BITMAP
20
20
10
00
3C
3C
C2
C2
C2
C2
C2
C2
3C
3C
ENDCHAR
STARTCHAR 211
ENCODING 211
SWIDTH 576 0
DWIDTH 8 0
BBX 7 14 0 0
BITMAP
0C
0C
10
00
3C
3C
C2
C2
C2
C2
C2
C2
3C
3C
ENDCHAR
STARTCHAR 212
ENCODING 212
SWIDTH 576 0
DWIDTH 8 0
BBX 7 14 0 0
BITMAP
10
10
2C
00
3C
3C
C2
C2
C2
C2
C2
C2
3C
3C
ENDCHAR
STARTCHAR 213
ENCODING 213
SWIDTH 576 0
DWIDTH 8 0
BBX 7 14 0 0
BITMAP
32
32
DC
00
3C
3C
C2
C2
C2
C2
C2
C2
3C
3C
ENDCHAR
STARTCHAR 214
ENCODING 214
SWIDTH 576 0
DWIDTH 8 0
BBX 7 12 0 0
BITMAP
2C
00
3C
3C
C2
C2
C2
C2
C2
C2
3C
3C
ENDCHAR
STARTCHAR 215
ENCODING 215
SWIDTH 576 0
DWIDTH 8 0
BBX 7 6 0 2
BITMAP
C2
2C
10
10
2C
C2
ENDCHAR
STARTCHAR 216
ENCODING 216
SWIDTH 576 0
DWIDTH 8 0
BBX 7 12 0 -1
BITMAP
02
3C
3C
CE
D2
D2
D2
D2
E2
3C
3C
C0
ENDCHAR
STARTCHAR 217
ENCODING 217
SWIDTH 576 0
DWIDTH 8 0
BBX 7 14 0 0
BITMAP
20
20
10
00
C2
C2
C2
C2
C2
C2
C2
C2
3C
3C
ENDCHAR
STARTCHAR 218
ENCODING 218
SWIDTH 576 0
DWIDTH 8 0
BBX 7 14 0 0
BITMAP
0C
0C
10
00
C2
C2
C2
C2
C2
C2
C2
C2
3C
3C
ENDCHAR
STARTCHAR 219
ENCODING 219
SWIDTH 576 0
DWIDTH 8 0
BBX 7 14 0 0
BITMAP
10
10
2C
00
C2
C2
C2
C2
C2
C2
C2
C2
3C
3C
ENDCHAR
STARTCHAR 220
ENCODING 220
SWIDTH 576 0
DWIDTH 8 0
BBX 7 12 0 0
BITMAP
2C
00
C2
C2
C2
C2
C2
C2
C2
C2
3C
3C
ENDCHAR
STARTCHAR 221
ENCODING 221
SWIDTH 576 0
DWIDTH 8 0
BBX 7 14 0 0
BITMAP
0C
0C
10
00
C2
C2
C2
2C
10
10
10
10
10
10
ENDCHAR
STARTCHAR 222
ENCODING 222
SWIDTH 576 0
DWIDTH 8 0
BBX 5 10 2 0
BITMAP
80
80
F0
88
88
88
88
F0
80
80
ENDCHAR
STARTCHAR 223
ENCODING 223
SWIDTH 576 0
DWIDTH 8 0
BBX 7 10 0 0
BITMAP
3C
3C
C2
CC
D0
D0
CC
C2
DC
DC
ENDCHAR
STARTCHAR 224
ENCODING 224
SWIDTH 576 0
DWIDTH 8 0
BBX 7 11 0 0
BITMAP
20
10
10
00
3C
02
02
3E
C2
3E
3E
ENDCHAR
STARTCHAR 225
ENCODING 225
SWIDTH 576 0
DWIDTH 8 0
BBX 7 11 0 0
BITMAP
0C
10
10
00
3C
02
02
3E
C2
3E
3E
ENDCHAR
STARTCHAR 226
ENCODING 226
SWIDTH 576 0
DWIDTH 8 0
BBX 7 11 0 0
BITMAP
10
2C
2C
00
3C
02
02
3E
C2
3E
3E
ENDCHAR
STARTCHAR 227
ENCODING 227
SWIDTH 576 0
DWIDTH 8 0
BBX 7 11 0 0
BITMAP
32
DC
DC
00
3C
02
02
3E
C2
3E
3E
ENDCHAR
STARTCHAR 228
ENCODING 228
SWIDTH 576 0
DWIDTH 8 0
BBX 7 10 0 0
BITMAP
2C
2C
00
3C
02
02
3E
C2
3E
3E
ENDCHAR
STARTCHAR 229
ENCODING 229
SWIDTH 576 0
DWIDTH 8 0
BBX 7 11 0 0
BITMAP
10
2C
2C
10
3C
02
02
3E
C2
3E
3E
ENDCHAR
STARTCHAR 230
ENCODING 230
SWIDTH 576 0
DWIDTH 8 0
BBX 7 7 0 0
BITMAP
3C
12
12
3C
D0
3E
3E
ENDCHAR
STARTCHAR 231
ENCODING 231
SWIDTH 576 0
DWIDTH 8 0
BBX 7 9 0 -2
BITMAP
3C
C2
C2
C0
C2
3C
3C
0C
30
ENDCHAR
STARTCHAR 232
ENCODING 232
SWIDTH 576 0
DWIDTH 8 0
BBX 7 11 0 0
BITMAP
20
10
10
00
3C
C2
C2
FC
C0
3C
3C
ENDCHAR
STARTCHAR 233
ENCODING 233
SWIDTH 576 0
DWIDTH 8 0
BBX 7 11 0 0
BITMAP
0C
10
10
00
3C
C2
C2
FC
C0
3C
3C
ENDCHAR
STARTCHAR 234
ENCODING 234
SWIDTH 576 0
DWIDTH 8 0
BBX 7 11 0 0
BITMAP
10
2C
2C
00
3C
C2
C2
FC
C0
3C
3C
ENDCHAR
STARTCHAR 235
ENCODING 235
SWIDTH 576 0
DWIDTH 8 0
BBX 7 10 0 0
BITMAP
2C
2C
00
3C
C2
C2
FC
C0
3C
3C
ENDCHAR
STARTCHAR 236
ENCODING 236
SWIDTH 576 0
DWIDTH 8 0
BBX 4 11 2 0
BITMAP
80
40
40
00
C0
40
40
40
40
F0
F0
ENDCHAR
STARTCHAR 237
ENCODING 237
SWIDTH 576 0
DWIDTH 8 0
BBX 4 11 2 0
BITMAP
30
40
40
00
C0
40
40
40
40
F0
F0
ENDCHAR
STARTCHAR 238
ENCODING 238
SWIDTH 576 0
DWIDTH 8 0
BBX 4 11 2 0
BITMAP
40
B0
B0
00
C0
40
40
40
40
F0
F0
ENDCHAR
STARTCHAR 239
ENCODING 239
SWIDTH 576 0
DWIDTH 8 0
BBX 4 10 2 0
BITMAP
B0
B0
00
C0
40
40
40
40
F0
F0
ENDCHAR
STARTCHAR 240
ENCODING 240
SWIDTH 576 0
DWIDTH 8 0
BBX 7 12 0 0
BITMAP
2C
10
2C
2C
02
3E
C2
C2
C2
C2
3C
3C
ENDCHAR
STARTCHAR 241
ENCODING 241
SWIDTH 576 0
DWIDTH 8 0
BBX 7 11 0 0
BITMAP
32
DC
DC
00
DC
E2
E2
C2
C2
C2
C2
ENDCHAR
STARTCHAR 242
ENCODING 242
SWIDTH 576 0
DWIDTH 8 0
BBX 7 11 0 0
BITMAP
20
10
10
00
3C
C2
C2
C2
C2
3C
3C
ENDCHAR
STARTCHAR 243
ENCODING 243
SWIDTH 576 0
DWIDTH 8 0
BBX 7 11 0 0
BITMAP
0C
10
10
00
3C
C2
C2
C2
C2
3C
3C
ENDCHAR
STARTCHAR 244
ENCODING 244
SWIDTH 576 0
DWIDTH 8 0
BBX 7 11 0 0
BITMAP
10
2C
2C
00
3C
C2
C2
C2
C2
3C
3C
ENDCHAR
STARTCHAR 245
ENCODING 245
SWIDTH 576 0
DWIDTH 8 0
BBX 7 11 0 0
BITMAP
32
DC
DC
00
3C
C2
C2
C2
C2
3C
3C
ENDCHAR
STARTCHAR 246
ENCODING 246
SWIDTH 576 0
DWIDTH 8 0
BBX 7 10 0 0
BITMAP
2C
2C
00
3C
C2
C2
C2
C2
3C
3C
ENDCHAR
STARTCHAR 247
ENCODING 247
SWIDTH 576 0
DWIDTH 8 0
BBX 7 6 0 2
BITMAP
10
00
FE
FE
00
10
ENDCHAR
STARTCHAR 248
ENCODING 248
SWIDTH 576 0
DWIDTH 8 0
BBX 7 7 0 0
BITMAP
3E
CE
CE
D2
E2
FC
FC
ENDCHAR
STARTCHAR 249
ENCODING 249
SWIDTH 576 0
DWIDTH 8 0
BBX 7 11 0 0
BITMAP
20
10
10
00
C2
C2
C2
C2
C2
3C
3C
ENDCHAR
STARTCHAR 250
ENCODING 250
SWIDTH 576 0
DWIDTH 8 0
BBX 7 11 0 0
BITMAP
0C
10
10
00
C2
C2
C2
C2
C2
3C
3C
ENDCHAR
STARTCHAR 251
ENCODING 251
SWIDTH 576 0
DWIDTH 8 0
BBX 7 11 0 0
BITMAP
10
2C
2C
00
C2
C2
C2
C2
C2
3C
3C
ENDCHAR
STARTCHAR 252
ENCODING 252
SWIDTH 576 0
DWIDTH 8 0
BBX 7 10 0 0
BITMAP
2C
2C
00
C2
C2
C2
C2
C2
3C
3C
ENDCHAR
STARTCHAR 253
ENCODING 253
SWIDTH 576 0
DWIDTH 8 0
BBX 7 13 0 -2
BITMAP
0C
10
10
00
C2
C2
C2
C2
2C
10
10
20
C0
ENDCHAR
STARTCHAR 254
ENCODING 254
SWIDTH 576 0
DWIDTH 8 0
BBX 7 12 0 -2
BITMAP
C0
C0
C0
FC
C2
C2
C2
C2
FC
FC
C0
C0
ENDCHAR
STARTCHAR 255
ENCODING 255
SWIDTH 576 0
DWIDTH 8 0
BBX 7 12 0 -2
BITMAP
2C
2C
00
C2
C2
C2
C2
2C
10
10
20
C0
ENDCHAR
ENDFONT
